<svg xmlns="http://www.w3.org/2000/svg" xmlns:xlink="http://www.w3.org/1999/xlink" style="display: none" fill="currentColor"><view id="g-icon-texas-view" viewBox="0 64 32 32"/><view id="g-icon-florida-view" viewBox="0 96 32 32"/><symbol id="s-logo-mht" viewBox="0 0 300 240" stroke-width="0"><g id="s-logo-mht-tablet">
<path id="s-mht-logo-tablet-frame" fill="var(--color-teal-5)" d="M255 0c24.853 0 45 20.147 45 45v150c0 24.853-20.147 45-45 45H45c-24.853 0-45-20.147-45-45V45C0 20.147 20.147 0 45 0h210zM45 30h210c8.284 0 15 6.716 15 15v150c0 8.284-6.716 15-15 15H45c-8.284 0-15-6.716-15-15V45c0-8.284 6.716-15 15-15z"/><path id="s-logo-mht-tablet-button"  fill="var(--color-wellmed-1-green)" d="M293.333 120.583a8.332 8.332 0 11-16.664 0 8.332 8.332 0 0116.664 0z"/><path id="s-logo-mht-tablet-screen" fill="var(--color-wellmed-1-green)" d="M45 30h210c8.284 0 15 6.716 15 15v150c0 8.284-6.716 15-15 15H45c-8.284 0-15-6.716-15-15V45c0-8.284 6.716-15 15-15z" /></g><g id="s-logo-mht-icon" fill="var(--color-lime-4)">
<path d="M208.6 46.258c-3.234 3.078-5.015 7.175-5.015 11.538 0 .745.052 1.481.154 2.207 7.574-6.35 16.925-9.949 26.995-9.949s19.421 3.598 26.995 9.949a15.84 15.84 0 00.154-2.207c0-4.363-1.781-8.46-5.015-11.538-6.027-5.737-15.488-6.253-22.134-1.556-6.646-4.697-16.107-4.18-22.134 1.556z"/><path d="M251.411 70.718l1.457-1.386a16.515 16.515 0 002.612-3.186c-6.702-6.52-15.582-9.915-24.746-9.915-9.164 0-18.044 3.395-24.746 9.915a16.515 16.515 0 002.612 3.186l1.456 1.386c5.505-5.449 12.948-8.311 20.678-8.311s15.173 2.862 20.677 8.31z"/><path d="M242.539 79.162l4.42-4.207c-4.507-4.16-10.09-6.372-16.225-6.372-6.135 0-11.718 2.212-16.225 6.373l4.53 4.31c3.047-3.004 7.246-4.506 11.695-4.506 4.397 0 8.55 1.467 11.805 4.402zM223.591 83.598l7.143 6.798 7.279-6.927c-4.253-3.111-10.217-3.068-14.422.13z"/></g><g id="s-logo-mht-type" fill="var(--color-white)"><path d="M62.761 156.395H48.028v-5.341h35.545v5.341H68.839v37.632h-6.078v-37.632zM120.6 188.686v5.341H89.414v-42.973h30.327v5.341H95.553v13.199h21.548v5.218H95.553v13.874H120.6z"/><path fill-rule="evenodd" clip-rule="evenodd" d="M159.118 183.284h-22.837l-4.727 10.743h-6.323l19.461-42.973h6.077l19.522 42.973h-6.446l-4.727-10.743zM147.7 157.316l9.27 21.057h-18.54l9.27-21.057z"/><path d="M215.699 194.027l-.061-31.309-15.532 26.091h-2.824l-15.531-25.907v31.125h-5.894v-42.973h5.034l17.926 30.204 17.68-30.204h5.034l.062 42.973h-5.894zM82.595 102.351v34.379H72.87v-13.408H59.61v13.408h-9.725v-34.379h9.724v12.916h13.26v-12.916h9.725zM103.255 130.05c1.276 0 2.373-.18 3.29-.54.95-.36 1.899-.949 2.849-1.768l4.862 5.108c-2.521 2.881-6.287 4.322-11.296 4.322-3.11 0-5.844-.59-8.202-1.769-2.357-1.178-4.19-2.815-5.5-4.911-1.277-2.095-1.916-4.469-1.916-7.121 0-2.619.639-4.96 1.916-7.023 1.276-2.096 3.028-3.733 5.255-4.911 2.259-1.179 4.78-1.768 7.563-1.768 2.586 0 4.944.54 7.072 1.62 2.161 1.048 3.88 2.603 5.157 4.666 1.277 2.03 1.915 4.453 1.915 7.269l-19.006 3.634c1.015 2.128 3.028 3.192 6.041 3.192zm-1.13-13.751c-1.604 0-2.914.507-3.929 1.522-1.015.983-1.588 2.407-1.719 4.273l10.805-2.112c-.328-1.113-.95-1.997-1.866-2.652-.917-.687-2.014-1.031-3.291-1.031zM148.664 110.111v26.619h-8.889v-2.653c-1.736 2.063-4.355 3.095-7.858 3.095-2.423 0-4.633-.557-6.631-1.67-1.964-1.146-3.536-2.767-4.714-4.862-1.146-2.096-1.719-4.519-1.719-7.269s.573-5.157 1.719-7.22c1.178-2.095 2.75-3.699 4.714-4.813 1.998-1.113 4.208-1.669 6.631-1.669 3.143 0 5.615.916 7.416 2.75v-2.308h9.331zm-14.783 19.645c1.637 0 2.98-.557 4.027-1.67 1.048-1.146 1.572-2.718 1.572-4.715 0-1.965-.524-3.503-1.572-4.617-1.047-1.113-2.39-1.669-4.027-1.669s-2.979.556-4.027 1.669c-1.048 1.114-1.572 2.652-1.572 4.617 0 1.997.524 3.569 1.572 4.715 1.048 1.113 2.39 1.67 4.027 1.67zM165.034 137.172c-3.275 0-5.828-.835-7.662-2.505-1.801-1.703-2.701-4.126-2.701-7.269v-27.11h9.331v26.619c0 .982.246 1.735.737 2.259.524.524 1.244.786 2.161.786.753 0 1.457-.164 2.112-.491l.393 7.023a14.042 14.042 0 01-4.371.688zM189.892 135.649c-.785.491-1.751.868-2.897 1.13a15.618 15.618 0 01-3.585.393c-3.471 0-6.139-.852-8.006-2.554-1.833-1.703-2.75-4.24-2.75-7.613v-22.837h9.331v6.925h6.041v6.974h-6.041v8.84c0 .982.246 1.735.737 2.259.491.524 1.162.786 2.014.786 1.08 0 2.03-.278 2.848-.835l2.308 6.532zM210.808 109.669c3.307 0 5.959.982 7.956 2.946 2.03 1.965 3.045 4.928 3.045 8.89v15.225h-9.331v-13.703c0-3.634-1.457-5.451-4.371-5.451-1.604 0-2.898.524-3.88 1.571-.949 1.048-1.424 2.62-1.424 4.715v12.868h-9.332v-36.442h9.332v12.278a10.21 10.21 0 013.585-2.161c1.375-.491 2.849-.736 4.42-.736zM136.198 63.045v21.757c0 4.944-1.326 8.643-3.978 11.099-2.62 2.488-6.401 3.732-11.345 3.732-2.587 0-5.01-.294-7.269-.884-2.226-.589-4.125-1.457-5.697-2.603l3.389-6.531c1.047.884 2.357 1.571 3.929 2.062 1.604.524 3.192.786 4.764.786 2.357 0 4.092-.54 5.206-1.62 1.113-1.081 1.669-2.686 1.669-4.814v-.589c-1.997 1.899-4.485 2.849-7.465 2.849-3.438 0-6.188-1.016-8.251-3.046-2.03-2.03-3.045-5.074-3.045-9.134V63.045h9.332v11.541c0 2.03.376 3.504 1.129 4.42.753.917 1.85 1.375 3.291 1.375 1.473 0 2.668-.523 3.585-1.571.95-1.048 1.424-2.62 1.424-4.715v-11.05h9.332zM89.109 54.597c4.06 0 7.22 1.212 9.479 3.635 2.292 2.39 3.438 5.86 3.438 10.412v21.02h-9.725V68.938c0-2.063-.54-3.618-1.62-4.665-1.08-1.08-2.522-1.621-4.322-1.621-1.932 0-3.47.573-4.617 1.719-1.113 1.113-1.67 2.8-1.67 5.058v20.235h-9.724V68.938c0-2.063-.507-3.618-1.522-4.665-.983-1.08-2.341-1.621-4.077-1.621-1.866 0-3.356.573-4.469 1.719-1.113 1.113-1.67 2.8-1.67 5.058v20.235h-9.724V55.285h9.43v3.83a9.977 9.977 0 014.027-3.339c1.67-.786 3.601-1.179 5.795-1.179 2.26 0 4.224.41 5.893 1.228a10.165 10.165 0 014.126 3.585c1.179-1.571 2.718-2.766 4.617-3.585 1.898-.818 4.01-1.228 6.335-1.228z"/></g></symbol><symbol id="s-icon-wellmed" viewBox="0 0 32 32" stroke-width="0"><path fill="var(--color-wellmed-1-green)" d="M19.488 28.277c4.055-.205 7.869-2.541 9.701-6.39 2.53-5.313.375-11.607-4.792-14.396.15.06.3.123.449.191 6.122 2.796 8.771 9.925 5.917 15.923-2.856 5.996-10.134 8.591-16.255 5.795-4.83-2.207-7.497-7.11-7.006-12.026a10.16 10.16 0 011.33-4.397 8.475 8.475 0 00-.094 3.467c.85 4.722 5.464 7.886 10.284 7.054 4.82-.834 8.05-5.352 7.2-10.074a8.559 8.559 0 00-1.298-3.227 10.252 10.252 0 013.51 6.042c1.013 5.624-2.821 10.987-8.562 11.979-.128.022-.256.042-.384.059zM12.422 3.848c-4.055.205-7.868 2.542-9.7 6.39-2.529 5.313-.374 11.606 4.792 14.397-.15-.062-.3-.124-.448-.192C.943 21.646-1.706 14.517 1.15 8.52 4.004 2.524 11.282-.071 17.405 2.726 22.234 4.93 24.9 9.83 24.41 14.746a10.149 10.149 0 01-1.332 4.402 8.469 8.469 0 00.094-3.468c-.85-4.72-5.462-7.885-10.284-7.052-4.82.832-8.05 5.35-7.2 10.072a8.54 8.54 0 001.299 3.228 10.256 10.256 0 01-3.511-6.042C2.465 10.263 6.299 4.9 12.039 3.907c.128-.022.256-.042.383-.059z"/></symbol><symbol id="s-icon-usmd" viewBox="0 32 32 32" stroke-width="0"><path fill="var(--color-usmd-1-red)" d="M16.004 53.697c2.02 1.098 4.184 2.1 6.255 1.382 0 0-1.432 2.022-4.1 1.183-.746-.234-1.453-.565-2.146-.923l-.01-.008c-2.02-1.096-4.187-2.1-6.26-1.38 0 0 1.434-2.022 4.102-1.184.746.235 1.457.565 2.15.925zm.01 3.187c2.018 1.096 4.182 2.099 6.254 1.383 0 0-1.431 2.019-4.1 1.182-.749-.235-1.456-.566-2.148-.926l-.007-.004c-2.024-1.099-4.188-2.1-6.26-1.383 0 0 1.432-2.022 4.101-1.183.745.235 1.456.565 2.152.924zm.007 3.186c2.019 1.098 4.182 2.1 6.255 1.38 0 0-1.432 2.025-4.1 1.185-.746-.233-1.454-.565-2.148-.925l-.007-.006c-2.022-1.096-4.188-2.098-6.26-1.382 0 0 1.433-2.02 4.102-1.183.746.236 1.455.565 2.15.925zM31.82 43.574s-3.316 4.248-7.226 4.26c-7.38.017-9.449-3.862-15.732-3.847-4.179.011-7.4 2.89-7.4 2.89v.002s3.455-4.329 7.33-4.46c6.05-.207 10.28 3.86 15.732 3.845 4.368-.01 7.298-2.69 7.298-2.69zm-.631 2.966s-3.315 4.25-7.226 4.262c-7.38.018-9.449-3.862-15.73-3.848-4.182.013-7.4 2.893-7.4 2.893s3.452-4.327 7.327-4.46c6.05-.206 10.281 3.86 15.734 3.846 4.366-.013 7.295-2.69 7.295-2.69zm-.631 2.97s-3.316 4.253-7.228 4.26c-7.379.02-9.448-3.86-15.73-3.847-4.18.012-7.4 2.892-7.4 2.892v.003s3.453-4.331 7.33-4.462c6.05-.208 10.282 3.86 15.732 3.844 4.368-.012 7.296-2.689 7.296-2.689z"/><path fill="var(--color-usmd-1-blue)" d="M16.02 42.44c-2.02-1.096-4.184-2.098-6.255-1.381 0 0 1.431-2.02 4.099-1.182.745.233 1.454.564 2.15.923l.007.007c2.017 1.097 4.18 2.1 6.252 1.382 0 0-1.432 2.022-4.098 1.181-.747-.233-1.454-.564-2.147-.923zm-.008-3.185c-2.022-1.098-4.184-2.101-6.255-1.382 0 0 1.431-2.021 4.098-1.183.745.234 1.455.564 2.15.925l.008.005c2.017 1.096 4.18 2.1 6.25 1.381 0 0-1.43 2.022-4.098 1.184-.746-.233-1.453-.564-2.145-.925zm-.01-3.188c-2.019-1.096-4.183-2.1-6.254-1.382 0 0 1.433-2.02 4.098-1.181.746.235 1.456.565 2.15.923l.008.008c2.018 1.096 4.181 2.1 6.251 1.381 0 0-1.431 2.022-4.098 1.181-.746-.233-1.452-.563-2.146-.922z"/></symbol><g id="g-icon-texas" fill="hsla(187, 69%, 55%, 1)" fill-rule="nonzero"><path d="M24.017 88.55l-.052.248-.138-.319-.416.248.104.425.312-.319-.416.815-.866-.106.728.567-.45 1.133-.278.107.139-.426-.312.355-.381-.496.312.496-.312.071h.832l-.278.779.208.283-.208.213.728 2.055.311.035-.069.248.104-.106.139.177-.485.248-.07.319-.796-.638-1.351-.071-1.697-.779-.692-.071-.347-1.169-.623-.744-.173-1.594-.831-.425-.624-1.063-.519-.532-1.005-2.444-1.385-1.347-.277.071-.242-.602-1.801-.106-.416-.177-.208.283-.692.071-.416 1.488-.727.815-.589-.142-2.666-1.842-1.143-2.941-1.039-.673-2.805-3.082L0 77.39l8.623.354.381-13.144h6.892l.035 5.598.9.531h.52l.104-.142.554.603 1.316.212.207.319.936-.319.45.709.588-.284.555.496.554-.354.138.567.52-.673.346.248.346-.142.762.461.935-.567.312.106.485-.212.519.106.277-.319 2.078 1.098.832-.106.277 4.57.588.532v.602l.97 1.523-.519 1.382.207 1.453-.519.708.208.39-.485.142-1.663 1.098.104-.425.624-.248v-.071l-.901.177.139-.673-.312.248-.415-.106.346.885.242.213-.692.461v.354l-.624.638-1.281.637v.036l.519-.177-1.212.779.554-.602-.554.248.208-.142-.139-.142-.45.142-.104-.248-.104-.035.139.283-.035.142-.173.177.069-.319-.45-.142.381.567-.173.213.346.035-.554.319-.346-.354.035.602-.312.319-.139.071z"/></g><g id="g-icon-florida" fill="hsla(187, 69%, 55%, 1)" fill-rule="nonzero"><path d="M9.017 102.949l-.036-.565-.306.152-.652-.38.767-.344-.115-.19-.537.228-.268-.229-.345.191.345.076.153.496-1.379-.763-1.838-.648.69.153.267-.229.192.267v-.267l.536.267-.153-.457-.307-.191-.766.229v-.229l-.383-.038-.383.495-.69-.076-1.762.229 1.226-.42-.498-.343.192-.228-.23-.267-.192.686-.46-.534.154.496-.498.61-1.073.267.728-.839-.306-.267.191-.762-.881-.877L.515 98l10.535.457.498 1.335 10.765.953.345.953.46-.038v-1.792l.267-.229 2.26.496v.838l-.306-.457v.381l.46.305.575 3.202 1.34 3.47 1.188 1.905.104.19h-.64l.038-.685-.46-.19.613 1.943 1.418 3.279.153.838.577 1.4-.462-.142.728.496.46 1.525-.46 4.88v-.649l-.537 1.334-.153 1.22-.421.572.115.267-.192-.267-.23.038.192.076.038.23-.23-.115-.038-.229-.92.42-.65-.153-.882.381-.345-.305-.153-.343.307-.457.191.228.372.236.28-.083-.997-.61-.153-.839-.728-1.258-1.15-.533-.459.152.383-.343-.383-.114-.23-.572v.228l-.268-1.715-.115-.267v.267l-.498-.114.881-1.068-.46.229-.153.496h-.498l-.076-1.716.536-.42-.843.306-.498-.496.498 1.144-.651-.19-1.034-2.136-.039-.533-.498-.343-.153-.229.307.229-.115-.115h.383l-.23-.19.306-.038h-.076l.92-1.296-.154-.496h-.192v.496h-.306l-.038-.649-.613-.266v.228h.153l-.23.153.575.305-.383.762-.613-.572.306.496v.229l-.498-.991.805-2.63.191-1.259-.306-.381.306.038v-.495l-.345-.42-.268-.915h-1.072l-.728-1.181-.728-.534.076-.61-.613-.305-.536-.953-1.379-.839-.651.153-.153-.229-.843.305.23.267-.422-.153-.038.153.46.19v.153l-.077.076-.536-.076-1.571.724.077-.228-.613.305-1.38.152-.114-.229-.23-.648.345.877.153-.61-.153-.343-1.303-1.296zm19.157 13.654l-1.15 1.144.844.914.69.344.344-1.373-.192-.572z"/></g></svg>